<svg version="1.1" id="Layer_1" xmlns="http://www.w3.org/2000/svg" xmlns:xlink="http://www.w3.org/1999/xlink" x="0px" y="0px"
	 width="100%" viewBox="0 0 218 279" enable-background="new 0 0 218 279" xml:space="preserve">
<path fill="#FEFEFE" opacity="1.000000" stroke="none" 
	d="
M201.000000,1.000001 
	C206.989883,1.000000 212.979782,1.000000 219.000000,1.000000 
	C219.000000,81.354225 219.000000,161.708450 218.708221,242.555130 
	C218.222626,243.070511 218.028809,243.093460 217.745209,242.707214 
	C217.597076,240.470474 217.501724,238.643234 217.486160,236.815308 
	C217.330368,218.519562 217.187714,200.223724 217.143661,181.473053 
	C217.272507,153.225662 217.303604,125.433113 217.309326,97.640556 
	C217.309570,96.494293 217.345963,95.224915 216.896378,94.223495 
	C215.165436,90.368004 211.904739,90.740234 208.644775,95.125298 
	C179.656479,134.118256 150.686142,173.124588 121.659836,212.089218 
	C119.994827,214.324326 117.888199,216.230469 115.576675,218.388428 
	C109.264992,221.016998 103.780792,220.212173 98.944695,216.082520 
	C96.953896,214.382507 95.263985,212.278351 93.658142,210.188278 
	C86.611748,201.017105 79.646172,191.783813 72.577576,182.225616 
	C68.525764,176.356628 64.617004,170.783524 60.554764,165.324615 
	C52.741375,154.824860 44.841072,144.389771 36.917236,133.594971 
	C27.301210,120.240120 17.867167,107.124443 8.050383,94.301796 
	C6.650707,92.473541 3.396106,92.065399 0.999999,91.000000 
	C1.000000,60.999950 1.000000,30.999901 1.000000,1.000000 
	C6.099545,1.000000 11.078575,1.000000 16.206062,1.138838 
	C16.373646,1.511117 16.392771,1.744558 16.217203,2.080001 
	C16.154127,2.456750 16.184422,2.742201 15.805475,3.168070 
	C15.392702,4.796903 14.610530,6.788139 15.287183,7.719442 
	C22.496534,17.641941 29.937216,27.396362 37.421394,37.544586 
	C38.750042,39.671947 39.910919,41.497105 41.202789,43.224285 
	C51.848534,57.457199 62.518581,71.671944 73.231323,86.227371 
	C81.835930,98.226799 90.346054,109.923973 98.960258,121.544006 
	C104.945206,129.617325 112.410706,129.487946 118.465836,121.283325 
	C132.883484,101.747635 147.272949,82.191147 161.675705,62.644466 
	C174.597870,45.107162 187.543823,27.587309 200.418228,10.015028 
	C201.960358,7.910188 204.732422,5.666644 201.177368,2.602042 
	C201.192047,1.821419 201.096024,1.410710 201.000000,1.000001 
z"/>
<path fill="#D10202" opacity="1.000000" stroke="none" 
	d="
M72.651291,182.573059 
	C79.646172,191.783813 86.611748,201.017105 93.658142,210.188278 
	C95.263985,212.278351 96.953896,214.382507 98.944695,216.082520 
	C103.780792,220.212173 109.264992,221.016998 115.499336,218.770020 
	C114.659058,221.037170 113.659294,223.151855 112.282883,224.983521 
	C105.638359,233.825729 98.746490,242.485138 92.224274,251.415298 
	C85.915924,260.052643 79.951164,268.940948 73.395187,277.855469 
	C48.969925,277.994629 24.984962,277.997314 1.000000,278.000000 
	C1.000000,278.000000 1.000000,277.500000 1.342154,277.207642 
	C2.842149,275.515656 4.060848,274.161591 5.148864,272.709656 
	C27.658602,242.670807 50.153469,212.620819 72.651291,182.573059 
z"/>
<path fill="#0545FD" opacity="1.000000" stroke="none" 
	d="
M72.577576,182.225616 
	C50.153469,212.620819 27.658602,242.670807 5.148864,272.709656 
	C4.060848,274.161591 2.842149,275.515656 1.342154,276.957642 
	C1.000000,245.645767 1.000000,214.291550 1.276031,182.284012 
	C13.360314,165.729767 25.168568,149.828812 36.976822,133.927872 
	C44.841072,144.389771 52.741375,154.824860 60.554764,165.324615 
	C64.617004,170.783524 68.525764,176.356628 72.577576,182.225616 
z"/>
<path fill="#0395FF" opacity="1.000000" stroke="none" 
	d="
M36.917236,133.594971 
	C25.168568,149.828812 13.360314,165.729767 1.276031,181.815353 
	C1.000000,151.979111 1.000000,121.958214 0.999999,91.468658 
	C3.396106,92.065399 6.650707,92.473541 8.050383,94.301796 
	C17.867167,107.124443 27.301210,120.240120 36.917236,133.594971 
z"/>
<path fill="#FEFEFF" opacity="1.000000" stroke="none" 
	d="
M1.000000,278.500000 
	C24.984962,277.997314 48.969925,277.994629 73.858803,278.009644 
	C98.129570,277.989929 121.496414,277.952484 145.169037,277.939545 
	C145.678802,277.951630 145.882828,277.939178 146.546112,277.992218 
	C158.130447,278.068604 169.255768,278.128754 180.380569,278.077209 
	C192.823273,278.019531 205.265503,277.860626 218.028107,277.823853 
	C218.565491,277.934601 218.782745,277.967285 219.000000,278.000000 
	C218.835205,278.666656 218.774124,279.851074 218.487320,279.908508 
	C217.368179,280.132660 216.177582,280.000000 215.013550,280.000000 
	C145.005264,280.000000 74.996986,280.005524 4.988731,279.958313 
	C3.658938,279.957428 2.329567,279.333344 1.000000,278.500000 
z"/>
<path fill="#22A1FE" opacity="1.000000" stroke="none" 
	d="
M63.000000,1.000000 
	C86.687561,1.000000 110.375122,1.000000 134.436127,1.324198 
	C134.851501,2.096446 134.893433,2.544495 134.684998,3.114974 
	C133.958435,3.527368 133.482285,3.817332 132.733643,3.780909 
	C130.662155,3.302477 128.863388,3.021300 127.064133,3.018074 
	C105.649849,2.979677 84.235481,2.982666 62.953209,2.628039 
	C63.160622,2.133336 63.317413,1.971235 63.294655,1.840358 
	C63.244488,1.551882 63.103767,1.279154 63.000000,1.000000 
z"/>
<path fill="#245EFE" opacity="1.000000" stroke="none" 
	d="
M134.935364,2.992545 
	C134.893433,2.544495 134.851501,2.096446 134.904785,1.324198 
	C135.444443,1.000000 135.888901,1.000000 136.829132,1.404836 
	C156.907623,1.870931 176.490326,1.941681 196.073059,1.951416 
	C196.715225,1.951735 197.357681,1.331153 198.000000,1.000002 
	C198.750000,1.000000 199.500000,1.000000 200.625000,1.000001 
	C201.096024,1.410710 201.192047,1.821419 200.704651,2.626009 
	C178.392609,3.010776 156.663986,3.001660 134.935364,2.992545 
z"/>
<path fill="#0D1117" opacity="1.000000" stroke="none" 
	d="
M197.531342,1.000002 
	C197.357681,1.331153 196.715225,1.951735 196.073059,1.951416 
	C176.490326,1.941681 156.907623,1.870931 137.162445,1.404836 
	C157.020889,1.000000 177.041794,1.000000 197.531342,1.000002 
z"/>
<path fill="#24B866" opacity="1.000000" stroke="none" 
	d="
M62.666668,1.000000 
	C63.103767,1.279154 63.244488,1.551882 63.294655,1.840358 
	C63.317413,1.971235 63.160622,2.133336 62.746727,2.662711 
	C62.145584,3.171623 61.870056,3.212879 61.067345,3.115173 
	C45.739868,3.054408 30.926632,3.046383 16.113396,3.038358 
	C16.184422,2.742201 16.154127,2.456750 16.724390,2.075597 
	C30.624411,1.981476 43.822681,2.022453 57.020489,1.961920 
	C58.348434,1.955829 59.673565,1.335350 61.000000,1.000000 
	C61.444447,1.000000 61.888889,1.000000 62.666668,1.000000 
z"/>
<path fill="#0D1117" opacity="1.000000" stroke="none" 
	d="
M60.531342,1.000000 
	C59.673565,1.335350 58.348434,1.955829 57.020489,1.961920 
	C43.822681,2.022453 30.624411,1.981476 16.919085,1.973594 
	C16.392771,1.744558 16.373646,1.511117 16.677261,1.138838 
	C31.354227,1.000000 45.708454,1.000000 60.531342,1.000000 
z"/>
<path fill="#FBD9C1" opacity="1.000000" stroke="none" 
	d="
M219.000000,277.531342 
	C218.782745,277.967285 218.565491,277.934601 218.018280,277.374878 
	C217.737198,265.604034 217.786087,254.360214 217.834991,243.116394 
	C218.028809,243.093460 218.222626,243.070511 218.708221,243.023788 
	C219.000000,254.354233 219.000000,265.708466 219.000000,277.531342 
z"/>
<path fill="#FC4404" opacity="1.000000" stroke="none" 
	d="
M144.863281,277.915039 
	C121.496414,277.952484 98.129570,277.989929 74.299103,277.873169 
	C79.951164,268.940948 85.915924,260.052643 92.224274,251.415298 
	C98.746490,242.485138 105.638359,233.825729 112.282883,224.983521 
	C113.659294,223.151855 114.659058,221.037170 115.909760,218.671326 
	C117.888199,216.230469 119.994827,214.324326 121.659836,212.089218 
	C150.686142,173.124588 179.656479,134.118256 208.644775,95.125298 
	C211.904739,90.740234 215.165436,90.368004 216.896378,94.223495 
	C217.345963,95.224915 217.309570,96.494293 217.309326,97.640556 
	C217.303604,125.433113 217.272507,153.225662 216.839172,181.631851 
	C215.958435,182.707870 215.410385,183.115341 215.021072,183.640488 
	C191.981522,214.719818 168.955078,245.808868 145.665436,276.963135 
	C145.223450,277.324524 145.043365,277.619781 144.863281,277.915039 
z"/>
<path fill="#0547FF" opacity="1.000000" stroke="none" 
	d="
M134.684982,3.114974 
	C156.663986,3.001660 178.392609,3.010776 200.593933,2.995924 
	C204.732422,5.666644 201.960358,7.910188 200.418228,10.015028 
	C187.543823,27.587309 174.597870,45.107162 161.675705,62.644466 
	C147.272949,82.191147 132.883484,101.747635 118.465836,121.283325 
	C112.410706,129.487946 104.945206,129.617325 98.960258,121.544006 
	C90.346054,109.923973 81.835930,98.226799 73.483261,86.032936 
	C83.696251,71.922363 93.764870,58.383301 103.702232,44.748585 
	C113.539124,31.251720 123.243576,17.658340 133.006119,4.107295 
	C133.482285,3.817332 133.958435,3.527368 134.684982,3.114974 
z"/>
<path fill="#0295FF" opacity="1.000000" stroke="none" 
	d="
M132.733643,3.780908 
	C123.243576,17.658340 113.539124,31.251720 103.702232,44.748585 
	C93.764870,58.383301 83.696251,71.922363 73.433197,85.697754 
	C62.518581,71.671944 51.848534,57.457199 41.202789,43.224285 
	C39.910919,41.497105 38.750042,39.671947 37.664215,37.254593 
	C40.405918,33.000175 43.033890,29.398993 45.613220,25.763298 
	C50.949718,18.241230 56.260330,10.700796 61.581589,3.167915 
	C61.870056,3.212879 62.145584,3.171623 62.614658,3.009476 
	C84.235481,2.982666 105.649849,2.979677 127.064133,3.018074 
	C128.863388,3.021300 130.662155,3.302477 132.733643,3.780908 
z"/>
<path fill="#FFC502" opacity="1.000000" stroke="none" 
	d="
M145.927353,276.896973 
	C168.955078,245.808868 191.981522,214.719818 215.021072,183.640488 
	C215.410385,183.115341 215.958435,182.707870 216.736877,182.086700 
	C217.187714,200.223724 217.330368,218.519562 217.486160,236.815308 
	C217.501724,238.643234 217.597076,240.470474 217.745209,242.707214 
	C217.786087,254.360214 217.737198,265.604034 217.698120,277.296814 
	C205.265503,277.860626 192.823273,278.019531 180.380569,278.077209 
	C169.255768,278.128754 158.130447,278.068604 146.532562,277.730927 
	C146.015625,277.235107 145.971497,277.066040 145.927353,276.896973 
z"/>
<path fill="#04AE4F" opacity="1.000000" stroke="none" 
	d="
M61.067345,3.115174 
	C56.260330,10.700796 50.949718,18.241230 45.613220,25.763298 
	C43.033890,29.398993 40.405918,33.000175 37.557152,36.906982 
	C29.937216,27.396362 22.496534,17.641941 15.287183,7.719442 
	C14.610530,6.788139 15.392702,4.796903 15.805475,3.168070 
	C30.926632,3.046383 45.739868,3.054408 61.067345,3.115174 
z"/>
<path fill="#FBD9C1" opacity="1.000000" stroke="none" 
	d="
M145.665436,276.963135 
	C145.971497,277.066040 146.015625,277.235107 146.073303,277.665436 
	C145.882828,277.939178 145.678802,277.951630 145.169037,277.939545 
	C145.043365,277.619781 145.223450,277.324524 145.665436,276.963135 
z"/>
</svg>